<svg xmlns="http://www.w3.org/2000/svg" xmlns:xlink="http://www.w3.org/1999/xlink" width="1170" height="260" style="width:100%;height:100%;transform:translate3d(0,0,0);content-visibility:visible"><defs><path id="a" fill="#161616" d="M0 0h2880v1040H0z" style="display:block" transform="matrix(.18375 0 0 .12461 322.202 120)"/><path id="h" fill="#161616" d="M0 0h2880v1040H0z" style="display:block" transform="matrix(.18375 0 0 .12461 322.202 120)"/><path id="b" fill="#161616" d="M0 0h2880v1040H0z" style="display:block" transform="matrix(.1516 0 0 .1028 39.335 18.386)"/><path id="c" fill="#161616" d="M0 0h2880v1040H0z" style="display:block" transform="matrix(.09384 0 0 .1028 502.112 18.386)"/><path id="d" fill="#161616" d="M0 0h2880v1040H0z" style="display:block" transform="matrix(.08662 0 0 .1028 798.985 18.386)"/><path id="e" fill="#161616" d="M0 0h2880v1040H0z" style="display:block" transform="matrix(.15056 0 0 .1028 191.517 92.005)"/><path id="f" fill="#161616" d="M0 0h2880v1040H0z" style="display:block" transform="matrix(.1124 0 0 .1028 643.097 92.005)"/><path id="g" fill="#161616" d="M0 0h2880v1040H0z" style="display:block" transform="matrix(.03816 0 0 .1028 1004.523 92.005)"/><mask id="q" mask-type="alpha"><use xlink:href="#a"/></mask><mask id="o" mask-type="alpha"><use xlink:href="#b"/></mask><mask id="n" mask-type="alpha"><use xlink:href="#c"/></mask><mask id="m" mask-type="alpha"><use xlink:href="#d"/></mask><mask id="l" mask-type="alpha"><use xlink:href="#e"/></mask><mask id="k" mask-type="alpha"><use xlink:href="#f"/></mask><mask id="j" mask-type="alpha"><use xlink:href="#g"/></mask><mask id="p" mask-type="alpha"><use xlink:href="#h"/></mask><clipPath id="i"><path d="M0 0h1170v260H0z"/></clipPath><clipPath id="r"><path d="M0 0h24v24H0z"/></clipPath></defs><g clip-path="url(#i)"><path d="M0 0h2880v1040H0z" style="display:block" transform="translate(-1039 -390)"/><g mask="url(#j)" style="display:block"><path fill="#FFF" d="M1061.987 177.54h42.947v-11.227h-28.602v-15.86h21.74V139.94h-21.74v-14.88h27.176v-11.227h-41.52v63.707zM1019.393 140.029v-16.395h8.554c3.386 0 5.865.629 7.44 1.883 1.573 1.254 2.36 3.224 2.36 5.911v.359c0 2.868-.743 4.958-2.227 6.272-1.486 1.314-3.98 1.97-7.484 1.97h-8.643zm0 27.532v-18.266h9.177c3.92 0 6.742.743 8.465 2.228 1.722 1.485 2.584 3.713 2.584 6.682v.357c0 2.91-.833 5.138-2.495 6.682-1.664 1.545-4.277 2.317-7.84 2.317h-9.89zm-14.078 9.979h26.196c7.424 0 13.008-1.5 16.75-4.5 3.743-2.999 5.614-7.44 5.614-13.32v-.357c0-4.276-1.085-7.632-3.252-10.068-2.17-2.434-5.332-4.068-9.49-4.9 3.565-1.01 6.177-2.687 7.841-5.034 1.663-2.346 2.495-5.213 2.495-8.599v-.356c0-5.464-1.768-9.592-5.301-12.385-3.535-2.791-8.807-4.188-15.816-4.188h-25.037v63.707z"/></g><g mask="url(#k)" style="display:block"><path fill="#FFF" d="M904.54 177.54h20.76c5.583 0 10.47-.757 14.657-2.272 4.188-1.515 7.677-3.667 10.47-6.46 2.79-2.791 4.884-6.148 6.281-10.068 1.395-3.92 2.094-8.256 2.094-13.009v-.713c0-4.75-.699-9.057-2.094-12.92-1.397-3.86-3.46-7.156-6.192-9.89-2.793-2.672-6.282-4.736-10.47-6.192-4.187-1.454-9.074-2.183-14.657-2.183H904.54v63.707zm14.434-11.227V125.06h5.703c6.711 0 11.567 1.723 14.568 5.168 2.998 3.446 4.5 8.435 4.5 14.969v.712c0 6.654-1.531 11.717-4.59 15.192-3.06 3.475-7.826 5.212-14.3 5.212h-5.88zM856.689 177.54h40.362v-11.227h-25.928v-52.48H856.69v63.707zM838.147 171.882c4.633-4.425 6.95-11.004 6.95-19.736v-38.313h-14.523v37.422c0 5.822-.98 9.906-2.94 12.252-1.96 2.347-5.08 3.52-9.356 3.52-4.396 0-7.47-1.204-9.222-3.61-1.753-2.405-2.628-6.281-2.628-11.627v-37.957h-14.524v38.848c0 8.495 2.272 14.924 6.816 19.29 4.545 4.366 11.033 6.549 19.469 6.549 8.671 0 15.325-2.212 19.958-6.638zM764.724 176.07c4.039-1.633 7.485-3.905 10.336-6.816 2.851-2.91 5.063-6.371 6.638-10.38 1.573-4.01 2.361-8.39 2.361-13.143v-.713c0-4.811-.817-9.177-2.45-13.097-1.634-3.92-3.876-7.307-6.727-10.158-2.912-2.79-6.37-4.959-10.38-6.504-4.01-1.544-8.42-2.317-13.232-2.317-4.752 0-9.118.802-13.097 2.406-3.981 1.604-7.426 3.831-10.336 6.683-2.97 2.85-5.273 6.267-6.905 10.246-1.635 3.98-2.45 8.347-2.45 13.098v.713c0 4.633.77 8.94 2.316 12.92 1.544 3.98 3.742 7.394 6.593 10.246 2.792 2.91 6.207 5.183 10.247 6.816 4.038 1.632 8.554 2.45 13.543 2.45 4.99 0 9.503-.818 13.543-2.45zm-20.493-10.514a15.42 15.42 0 0 1-5.613-4.232c-1.604-1.782-2.851-3.965-3.742-6.55-.891-2.583-1.337-5.508-1.337-8.776v-.712c0-3.208.401-6.104 1.203-8.688.802-2.583 1.975-4.795 3.52-6.638a15.988 15.988 0 0 1 5.568-4.143c2.168-.98 4.648-1.47 7.44-1.47 2.791 0 5.286.506 7.485 1.515a15.927 15.927 0 0 1 5.613 4.277c1.484 1.842 2.628 4.04 3.43 6.593.802 2.555 1.203 5.377 1.203 8.465v.712c0 3.208-.416 6.12-1.247 8.732-.833 2.615-1.99 4.812-3.475 6.594a16.001 16.001 0 0 1-5.569 4.276c-2.169 1.01-4.589 1.515-7.262 1.515-2.614 0-5.02-.49-7.217-1.47zM696.737 177.005c3.325-1.009 6.237-2.523 8.731-4.544 2.495-1.96 4.514-4.44 6.06-7.44 1.543-2.999 2.523-6.46 2.94-10.38H700.3c-.595 4.099-2.183 7.159-4.767 9.177-2.584 2.02-5.867 3.03-9.846 3.03-5.287 0-9.37-1.811-12.251-5.435-2.882-3.623-4.321-8.761-4.321-15.415v-.712c0-6.652 1.484-11.82 4.455-15.504 2.969-3.682 6.978-5.524 12.028-5.524 4.039 0 7.142.996 9.311 2.985 2.167 1.99 3.52 4.916 4.054 8.776h14.79c-.356-3.92-1.322-7.335-2.895-10.246-1.575-2.91-3.58-5.316-6.014-7.217-2.495-1.9-5.39-3.326-8.688-4.277-3.296-.95-6.846-1.426-10.647-1.426-4.515 0-8.703.788-12.563 2.361-3.862 1.575-7.188 3.787-9.98 6.638-2.85 2.852-5.078 6.282-6.682 10.291-1.604 4.01-2.405 8.42-2.405 13.232v.713c0 4.93.682 9.386 2.049 13.365 1.365 3.98 3.415 7.366 6.148 10.157 2.673 2.851 5.998 5.05 9.979 6.593 3.979 1.544 8.582 2.317 13.81 2.317 3.92 0 7.543-.506 10.87-1.515z"/></g><g mask="url(#l)" style="display:block"><path fill="#FFF" d="M607.39 176.915c3.03-1.071 5.583-2.529 7.662-4.373a18.415 18.415 0 0 0 4.812-6.38c1.128-2.468 1.693-5.13 1.693-7.987 0-3.272-.49-6.037-1.47-8.298a13.863 13.863 0 0 0-4.411-5.621c-1.96-1.429-4.396-2.573-7.306-3.436-2.912-.862-6.297-1.531-10.158-2.007-2.436-.357-4.426-.775-5.97-1.25-1.544-.477-2.732-1.043-3.563-1.697-.891-.596-1.5-1.324-1.827-2.187-.327-.863-.49-1.86-.49-2.992 0-2.141.786-3.882 2.361-5.222 1.574-1.34 3.965-2.009 7.173-2.009 3.088 0 5.524.699 7.306 2.094 1.782 1.397 2.88 3.52 3.297 6.37h13.276c-.595-6.325-2.927-11.07-6.995-14.233-4.07-3.163-9.698-4.745-16.884-4.745-3.506 0-6.683.475-9.534 1.425-2.851.95-5.287 2.255-7.306 3.918-2.02 1.72-3.58 3.739-4.678 6.053-1.1 2.315-1.648 4.838-1.648 7.566 0 3.087.43 5.727 1.292 7.923.86 2.197 2.241 4.036 4.143 5.52 1.84 1.542 4.202 2.775 7.083 3.695 2.88.92 6.371 1.647 10.47 2.18 2.316.358 4.246.76 5.791 1.206 1.544.447 2.791.967 3.742 1.562.891.654 1.53 1.428 1.916 2.32.385.894.58 1.965.58 3.215 0 2.5-.952 4.54-2.852 6.116-1.902 1.577-4.455 2.365-7.663 2.365-2.376 0-4.321-.281-5.836-.846-1.514-.564-2.748-1.321-3.697-2.272a7.588 7.588 0 0 1-2.05-3.252 21.73 21.73 0 0 1-.89-4.055h-13.811c.178 3.208.83 6.09 1.96 8.643a18.416 18.416 0 0 0 4.9 6.594c2.139 1.842 4.812 3.252 8.02 4.232 3.207.98 7.008 1.47 11.404 1.47 3.743 0 7.128-.536 10.158-1.605zM552.85 176.915c3.03-1.071 5.584-2.529 7.663-4.373a18.415 18.415 0 0 0 4.812-6.38c1.128-2.468 1.693-5.13 1.693-7.987 0-3.272-.49-6.037-1.47-8.298a13.863 13.863 0 0 0-4.41-5.621c-1.961-1.429-4.397-2.573-7.307-3.436-2.911-.862-6.297-1.531-10.157-2.007-2.437-.357-4.426-.775-5.97-1.25-1.545-.477-2.733-1.043-3.564-1.697-.891-.596-1.5-1.324-1.827-2.187-.327-.863-.49-1.86-.49-2.992 0-2.141.787-3.882 2.361-5.222 1.574-1.34 3.965-2.009 7.173-2.009 3.088 0 5.524.699 7.306 2.094 1.782 1.397 2.88 3.52 3.297 6.37h13.276c-.595-6.325-2.926-11.07-6.995-14.233-4.07-3.163-9.697-4.745-16.884-4.745-3.505 0-6.683.475-9.534 1.425-2.85.95-5.287 2.255-7.306 3.918-2.02 1.72-3.58 3.739-4.678 6.053-1.1 2.315-1.648 4.838-1.648 7.566 0 3.087.43 5.727 1.292 7.923.86 2.197 2.242 4.036 4.143 5.52 1.84 1.542 4.202 2.775 7.084 3.695 2.88.92 6.37 1.647 10.469 2.18 2.316.358 4.246.76 5.791 1.206 1.544.447 2.791.967 3.742 1.562.891.654 1.53 1.428 1.916 2.32.385.894.58 1.965.58 3.215 0 2.5-.952 4.54-2.852 6.116-1.901 1.577-4.455 2.365-7.663 2.365-2.376 0-4.32-.281-5.836-.846-1.514-.564-2.748-1.321-3.697-2.272a7.588 7.588 0 0 1-2.05-3.252 21.729 21.729 0 0 1-.89-4.055h-13.811c.178 3.208.83 6.09 1.96 8.643a18.416 18.416 0 0 0 4.9 6.594c2.14 1.842 4.812 3.252 8.02 4.232 3.207.98 7.008 1.47 11.404 1.47 3.743 0 7.128-.536 10.158-1.605zM469.674 177.54h42.946v-11.227h-28.601v-15.86h21.74V139.94h-21.74v-14.88h27.175v-11.227h-41.52v63.707zM403.956 177.54h12.83v-45.352l26.552 45.352h14.434v-63.707h-12.83V155.8l-24.235-41.966h-16.751v63.707zM377.4 177.54h14.523v-63.707H377.4v63.707zM354.496 176.915c3.03-1.071 5.583-2.529 7.663-4.373a18.415 18.415 0 0 0 4.811-6.38c1.128-2.468 1.693-5.13 1.693-7.987 0-3.272-.49-6.037-1.47-8.298a13.863 13.863 0 0 0-4.41-5.621c-1.96-1.429-4.397-2.573-7.306-3.436-2.912-.862-6.298-1.531-10.158-2.007-2.436-.357-4.426-.775-5.97-1.25-1.545-.477-2.733-1.043-3.564-1.697-.89-.596-1.5-1.324-1.826-2.187-.328-.863-.49-1.86-.49-2.992 0-2.141.786-3.882 2.361-5.222 1.573-1.34 3.965-2.009 7.173-2.009 3.088 0 5.524.699 7.306 2.094 1.782 1.397 2.88 3.52 3.296 6.37h13.276c-.594-6.325-2.926-11.07-6.994-14.233-4.07-3.163-9.698-4.745-16.884-4.745-3.506 0-6.683.475-9.534 1.425-2.851.95-5.288 2.255-7.306 3.918-2.02 1.72-3.58 3.739-4.678 6.053-1.1 2.315-1.648 4.838-1.648 7.566 0 3.087.43 5.727 1.291 7.923.861 2.197 2.242 4.036 4.144 5.52 1.84 1.542 4.201 2.775 7.083 3.695 2.88.92 6.37 1.647 10.47 2.18 2.316.358 4.246.76 5.79 1.206 1.544.447 2.792.967 3.743 1.562.891.654 1.529 1.428 1.916 2.32.385.894.579 1.965.579 3.215 0 2.5-.951 4.54-2.851 6.116-1.902 1.577-4.455 2.365-7.663 2.365-2.377 0-4.321-.281-5.836-.846-1.515-.564-2.748-1.321-3.698-2.272a7.588 7.588 0 0 1-2.049-3.252 21.73 21.73 0 0 1-.891-4.055h-13.81c.178 3.208.83 6.09 1.96 8.643a18.416 18.416 0 0 0 4.9 6.594c2.139 1.842 4.812 3.252 8.02 4.232 3.207.98 7.008 1.47 11.404 1.47 3.742 0 7.128-.536 10.157-1.605zM303.972 171.882c4.633-4.425 6.95-11.004 6.95-19.736v-38.313H296.4v37.422c0 5.822-.98 9.906-2.94 12.252-1.96 2.347-5.08 3.52-9.356 3.52-4.396 0-7.47-1.204-9.222-3.61-1.753-2.405-2.628-6.281-2.628-11.627v-37.957h-14.524v38.848c0 8.495 2.272 14.924 6.817 19.29 4.544 4.366 11.032 6.549 19.468 6.549 8.672 0 15.325-2.212 19.958-6.638zM215.22 140.029v-16.395h8.553c3.386 0 5.865.629 7.44 1.883 1.574 1.254 2.361 3.224 2.361 5.911v.359c0 2.868-.743 4.958-2.227 6.272-1.486 1.314-3.98 1.97-7.485 1.97h-8.642zm0 27.532v-18.266h9.177c3.92 0 6.741.743 8.465 2.228 1.721 1.485 2.583 3.713 2.583 6.682v.357c0 2.91-.832 5.138-2.494 6.682-1.664 1.545-4.277 2.317-7.841 2.317h-9.89zm-14.078 9.979h26.195c7.425 0 13.009-1.5 16.751-4.5 3.742-2.999 5.613-7.44 5.613-13.32v-.357c0-4.276-1.084-7.632-3.252-10.068-2.169-2.434-5.332-4.068-9.489-4.9 3.564-1.01 6.177-2.687 7.841-5.034 1.662-2.346 2.495-5.213 2.495-8.599v-.356c0-5.464-1.768-9.592-5.302-12.385-3.535-2.791-8.806-4.188-15.815-4.188h-25.037v63.707z"/></g><g mask="url(#m)" style="display:block"><path fill="#FFF" d="M1008.9 61.36V43.095h8.109c3.504 0 6.193.639 8.064 1.915 1.87 1.278 2.806 3.55 2.806 6.816v.357c0 3.03-.906 5.317-2.717 6.86-1.813 1.546-4.53 2.317-8.153 2.317h-8.108zm-14.344 34.393h14.345V71.16h6.237l15.236 24.592h15.325l-16.84-27.087a22.252 22.252 0 0 0 5.168-2.227 16.948 16.948 0 0 0 4.188-3.475c1.187-1.365 2.108-2.97 2.762-4.811.653-1.841.98-3.98.98-6.416v-.356c0-3.266-.58-6.117-1.737-8.554a16.11 16.11 0 0 0-4.945-6.058c-2.139-1.604-4.723-2.791-7.752-3.564-3.03-.772-6.415-1.159-10.158-1.159h-22.81v63.707zM976.014 90.095c4.633-4.425 6.95-11.004 6.95-19.736V32.046H968.44v37.422c0 5.822-.98 9.906-2.94 12.252-1.96 2.347-5.08 3.519-9.356 3.519-4.397 0-7.47-1.203-9.222-3.609-1.753-2.405-2.628-6.281-2.628-11.627V32.046H929.77v38.848c0 8.495 2.272 14.924 6.816 19.29 4.544 4.366 11.033 6.549 19.469 6.549 8.671 0 15.325-2.212 19.958-6.638zM902.591 94.283c4.039-1.633 7.485-3.905 10.336-6.817 2.851-2.91 5.063-6.37 6.638-10.38 1.573-4.01 2.361-8.39 2.361-13.142v-.713c0-4.811-.818-9.177-2.45-13.097-1.635-3.92-3.876-7.307-6.727-10.158-2.912-2.79-6.371-4.959-10.38-6.504-4.01-1.544-8.42-2.317-13.232-2.317-4.753 0-9.118.802-13.098 2.406-3.98 1.604-7.425 3.831-10.335 6.682-2.97 2.852-5.273 6.268-6.905 10.247-1.635 3.98-2.45 8.346-2.45 13.098v.712c0 4.634.77 8.94 2.316 12.92 1.544 3.98 3.742 7.395 6.593 10.246 2.791 2.912 6.207 5.184 10.247 6.817 4.038 1.632 8.553 2.45 13.543 2.45 4.99 0 9.503-.818 13.543-2.45zm-20.493-10.514a15.42 15.42 0 0 1-5.613-4.232c-1.604-1.782-2.851-3.965-3.742-6.55-.891-2.583-1.337-5.508-1.337-8.776V63.5c0-3.208.401-6.104 1.203-8.688.802-2.584 1.974-4.795 3.52-6.638a15.988 15.988 0 0 1 5.568-4.143c2.168-.98 4.648-1.47 7.44-1.47 2.791 0 5.286.506 7.485 1.515a15.927 15.927 0 0 1 5.613 4.277c1.484 1.842 2.628 4.04 3.43 6.593.802 2.555 1.203 5.376 1.203 8.464v.713c0 3.208-.416 6.12-1.247 8.732-.833 2.614-1.991 4.811-3.475 6.593a16.001 16.001 0 0 1-5.569 4.277c-2.169 1.01-4.589 1.515-7.262 1.515-2.614 0-5.02-.49-7.217-1.47zM824.179 95.753h14.523V68.31l19.87-36.264h-13.99L831.932 56.46l-12.92-24.414h-15.86L824.18 68.31v27.443z"/></g><g mask="url(#n)" style="display:block"><path fill="#FFF" d="M735.113 95.753h14.523v-52.48h17.196V32.046h-48.916v11.227h17.197v52.48zM691.27 43.807l8.376 27.532h-16.84l8.465-27.532zM661.78 95.753h13.543l4.366-14.167h23.077l4.366 14.167h15.058l-20.672-63.707h-18.8L661.78 95.753zM600.74 95.753h14.435V69.468h25.572v26.285h14.434V32.046h-14.434v26.017h-25.572V32.046h-14.434v63.707zM526.333 95.753h13.9l11.672-44.016L563.4 95.753h14.702l15.503-63.707h-13.365L569.903 76.33l-11.315-44.283h-12.296l-10.87 44.016-9.98-44.016H510.83l15.503 63.707z"/></g><g mask="url(#o)" style="display:block"><path fill="#FFF" d="M436.52 95.753h14.523v-52.48h17.196V32.046h-48.915v11.227h17.196v52.48zM358.553 95.753h12.83V50.4l26.552 45.352h14.434V32.046h-12.83v41.966l-24.235-41.966h-16.751v63.707zM307.583 95.753h42.946V84.526h-28.6v-15.86h21.74V58.153h-21.74v-14.88h27.175V32.046h-41.52v63.707zM263.296 95.753h16.573l21.205-63.707h-13.543l-15.147 48.916-15.147-48.916h-15.236l21.295 63.707zM181.226 95.753h12.83V50.4l26.552 45.352h14.434V32.046h-12.83v41.966l-24.235-41.966h-16.75v63.707zM155.12 95.753h14.523V32.046H155.12v63.707zM103.344 95.753h42.946V84.526h-28.601v-15.86h21.74V58.153h-21.74v-14.88h27.175V32.046h-41.52v63.707zM59.858 61.36V43.095h8.109c3.503 0 6.192.639 8.063 1.915 1.871 1.278 2.807 3.55 2.807 6.816v.357c0 3.03-.907 5.317-2.718 6.86-1.812 1.546-4.53 2.317-8.152 2.317h-8.109zM45.513 95.753h14.345V71.16h6.237l15.237 24.592h15.325l-16.84-27.087a22.252 22.252 0 0 0 5.168-2.227 16.948 16.948 0 0 0 4.187-3.475c1.188-1.365 2.108-2.97 2.762-4.811.653-1.841.98-3.98.98-6.416v-.356c0-3.266-.579-6.117-1.737-8.554a16.111 16.111 0 0 0-4.945-6.058c-2.138-1.604-4.722-2.791-7.752-3.564-3.029-.772-6.415-1.159-10.157-1.159h-22.81v63.707z"/></g><g mask="url(#p)" style="display:block"><path fill="#FFF" d="M690.46 227.115c.15-1.024.52-1.827 1.109-2.407.587-.58 1.343-.87 2.268-.87.957 0 1.709.262 2.255.782.545.521.86 1.353.945 2.495h-6.577zm7.635 7.112c1.059-.735 1.697-1.804 1.916-3.206h-2.949c-.118.646-.42 1.148-.907 1.505-.488.358-1.193.536-2.117.536-1.143 0-2.02-.338-2.633-1.014-.614-.677-.945-1.65-.996-2.917h9.652v-.88c0-1.171-.173-2.177-.517-3.014-.344-.837-.802-1.523-1.373-2.059a5.355 5.355 0 0 0-1.978-1.18 7.355 7.355 0 0 0-2.356-.377c-.942 0-1.811.164-2.609.492a6.185 6.185 0 0 0-2.079 1.386 6.292 6.292 0 0 0-1.373 2.142c-.328.831-.491 1.76-.491 2.784v.202c0 1.042.163 1.974.49 2.797.329.823.79 1.525 1.387 2.104a6.12 6.12 0 0 0 2.117 1.336c.814.31 1.709.466 2.684.466 1.696 0 3.074-.367 4.132-1.103zM676.965 231.928a3.226 3.226 0 0 1-1.109-.781 3.56 3.56 0 0 1-.73-1.248 4.892 4.892 0 0 1-.265-1.65v-.202c0-1.21.31-2.183.932-2.923.621-.739 1.503-1.109 2.646-1.109 1.11 0 1.979.35 2.609 1.046.63.698.945 1.676.945 2.936v.176c0 1.26-.345 2.248-1.034 2.961-.69.715-1.562 1.071-2.62 1.071-.488 0-.945-.092-1.374-.277zm6.149 6.54c1.2-.967 1.81-2.424 1.827-4.373v-12.197h-3.05v2.016a4.94 4.94 0 0 0-1.587-1.638c-.672-.436-1.554-.655-2.646-.655-.857 0-1.647.164-2.369.492a5.702 5.702 0 0 0-1.877 1.36 6.229 6.229 0 0 0-1.235 2.054 7.308 7.308 0 0 0-.44 2.57v.177c0 .958.15 1.823.453 2.596a5.976 5.976 0 0 0 1.235 1.978c.52.546 1.137.966 1.852 1.26a5.988 5.988 0 0 0 2.306.44c.486 0 .948-.066 1.386-.2a5.513 5.513 0 0 0 1.222-.543 4.88 4.88 0 0 0 1.7-1.7v1.94c0 1.192-.314 2.082-.944 2.671-.63.588-1.542.882-2.734.882-1.008 0-1.769-.18-2.281-.542-.513-.362-.836-.87-.97-1.524h-3.075a5.02 5.02 0 0 0 .555 1.751c.285.53.684.99 1.197 1.386.512.394 1.146.701 1.902.92.756.218 1.655.327 2.697.327 2.049 0 3.674-.483 4.876-1.449zM657.7 235.078h3.049v-7.78c0-1.044.302-1.831.907-2.361.605-.53 1.336-.796 2.193-.796.907 0 1.57.232 1.99.695.42.463.63 1.199.63 2.21v8.032h3.05v-8.29c0-.908-.11-1.69-.328-2.344-.219-.656-.53-1.188-.932-1.6a3.805 3.805 0 0 0-1.437-.92 5.272 5.272 0 0 0-1.814-.303c-1.093 0-1.996.236-2.71.706s-1.23 1.025-1.55 1.663v-2.092H657.7v13.18zM646.675 232.634c-.328-.336-.492-.782-.492-1.336 0-.806.344-1.364 1.034-1.676.688-.31 1.612-.466 2.772-.466h1.562v1.31c0 .857-.307 1.517-.92 1.979-.614.462-1.39.693-2.33.693-.757 0-1.299-.168-1.626-.504zm3.339 2.192a4.938 4.938 0 0 0 1.587-1.36v1.612h3v-8.644c0-.907-.136-1.666-.404-2.28-.27-.613-.643-1.109-1.121-1.487a4.393 4.393 0 0 0-1.676-.806 8.523 8.523 0 0 0-2.067-.24 8.42 8.42 0 0 0-2.091.252 5.3 5.3 0 0 0-1.74.781 4.226 4.226 0 0 0-1.234 1.349c-.32.546-.513 1.206-.58 1.978h2.949c.084-.663.323-1.178.718-1.544.394-.365.996-.548 1.802-.548.907 0 1.533.22 1.877.66.344.44.517 1.109.517 2.006v.686h-1.638c-.941 0-1.823.075-2.646.227-.824.15-1.537.39-2.142.718a3.949 3.949 0 0 0-1.436 1.285c-.353.53-.53 1.18-.53 1.953 0 .69.117 1.282.353 1.777.235.495.55.899.945 1.21.394.31.86.541 1.399.692a6.3 6.3 0 0 0 1.713.227c1.008 0 1.823-.168 2.445-.504zM629.199 235.078h3.049v-7.78c0-1.044.302-1.831.907-2.361.605-.53 1.336-.796 2.192-.796.908 0 1.57.232 1.991.695.42.463.63 1.199.63 2.21v8.032h3.05v-8.29c0-.908-.11-1.69-.328-2.344-.219-.656-.53-1.188-.933-1.6a3.805 3.805 0 0 0-1.436-.92 5.272 5.272 0 0 0-1.814-.303c-1.093 0-1.996.236-2.71.706s-1.23 1.025-1.55 1.663v-8.19H629.2v19.278zM623.314 234.952a5.479 5.479 0 0 0 1.878-1.071 5.321 5.321 0 0 0 1.247-1.638c.31-.63.492-1.323.542-2.079h-2.797c-.05.47-.169.882-.353 1.235a2.831 2.831 0 0 1-1.676 1.411 3.675 3.675 0 0 1-1.146.176c-1.126 0-2.016-.369-2.672-1.108-.655-.74-.982-1.831-.982-3.276v-.202c0-.671.088-1.276.264-1.814.177-.538.424-.996.744-1.374a3.118 3.118 0 0 1 1.134-.857 3.52 3.52 0 0 1 1.436-.29c.806 0 1.478.194 2.016.58.537.387.873 1.025 1.008 1.915h2.948c-.084-.907-.311-1.675-.68-2.305a4.842 4.842 0 0 0-1.373-1.525 5.575 5.575 0 0 0-1.853-.844 8.505 8.505 0 0 0-2.116-.265c-.925 0-1.79.16-2.596.479a6.278 6.278 0 0 0-2.117 1.373 6.385 6.385 0 0 0-1.424 2.155c-.344.84-.516 1.781-.516 2.822v.202c0 1.058.167 2 .504 2.822a5.967 5.967 0 0 0 1.398 2.092 6.062 6.062 0 0 0 2.117 1.31 7.505 7.505 0 0 0 2.634.454c.89 0 1.7-.126 2.431-.378zM597.598 227.115c.15-1.024.52-1.827 1.109-2.407.587-.58 1.343-.87 2.268-.87.957 0 1.709.262 2.255.782.545.521.86 1.353.945 2.495h-6.577zm7.635 7.112c1.059-.735 1.697-1.804 1.916-3.206H604.2c-.118.646-.42 1.148-.907 1.505-.488.358-1.193.536-2.117.536-1.143 0-2.02-.338-2.633-1.014-.614-.677-.945-1.65-.996-2.917h9.652v-.88c0-1.171-.173-2.177-.517-3.014-.344-.837-.802-1.523-1.373-2.059a5.355 5.355 0 0 0-1.978-1.18 7.355 7.355 0 0 0-2.356-.377c-.942 0-1.811.164-2.609.492a6.185 6.185 0 0 0-2.079 1.386 6.292 6.292 0 0 0-1.373 2.142c-.328.831-.491 1.76-.491 2.784v.202c0 1.042.163 1.974.49 2.797.329.823.79 1.525 1.387 2.104a6.12 6.12 0 0 0 2.117 1.336c.814.31 1.709.466 2.684.466 1.696 0 3.074-.367 4.132-1.103zM583.7 231.875c-.664-.707-.995-1.803-.995-3.286v-.202c0-1.482.34-2.583 1.02-3.298.68-.716 1.55-1.074 2.608-1.074.504 0 .966.09 1.386.266.42.177.79.45 1.11.82.318.371.566.831.743 1.378.176.549.264 1.184.264 1.908v.202c0 1.432-.299 2.515-.894 3.247-.597.734-1.458 1.1-2.583 1.1-1.11 0-1.996-.354-2.66-1.061zm5.77 2.989a5.12 5.12 0 0 0 1.84-1.348c.512-.588.916-1.302 1.21-2.142.293-.84.44-1.79.44-2.848v-.202c0-1.058-.15-2.003-.453-2.835-.302-.831-.714-1.532-1.234-2.104a5.259 5.259 0 0 0-1.853-1.31 5.855 5.855 0 0 0-2.305-.454c-.488 0-.95.068-1.386.202a5.955 5.955 0 0 0-1.223.529c-.378.219-.71.47-.995.756a4.412 4.412 0 0 0-.706.907V215.8h-3.049v19.278h3.05v-2.117c.352.673.894 1.235 1.625 1.689.73.453 1.625.68 2.684.68.856 0 1.641-.156 2.356-.466zM562.242 227.115c.151-1.024.52-1.827 1.109-2.407.588-.58 1.344-.87 2.268-.87.958 0 1.709.262 2.255.782.546.521.86 1.353.945 2.495h-6.577zm7.636 7.112c1.058-.735 1.696-1.804 1.915-3.206h-2.948c-.118.646-.42 1.148-.908 1.505-.487.358-1.193.536-2.116.536-1.143 0-2.021-.338-2.634-1.014-.614-.677-.945-1.65-.995-2.917h9.651v-.88c0-1.171-.172-2.177-.516-3.014-.345-.837-.803-1.523-1.374-2.059a5.355 5.355 0 0 0-1.978-1.18 7.355 7.355 0 0 0-2.356-.377c-.941 0-1.81.164-2.608.492a6.185 6.185 0 0 0-2.08 1.386 6.292 6.292 0 0 0-1.373 2.142c-.327.831-.491 1.76-.491 2.784v.202c0 1.042.164 1.974.491 2.797.328.823.79 1.525 1.386 2.104a6.12 6.12 0 0 0 2.117 1.336c.815.31 1.71.466 2.684.466 1.696 0 3.074-.367 4.133-1.103zM550.6 235.078h3.049v-6.854c0-.706.096-1.29.29-1.752.192-.462.474-.835.844-1.121.369-.285.819-.492 1.348-.618a7.806 7.806 0 0 1 1.802-.189v-2.847c-1.109.017-1.995.256-2.659.718-.664.463-1.206 1.113-1.625 1.953v-2.47h-3.05v13.18zM538.68 227.115c.151-1.024.52-1.827 1.109-2.407.588-.58 1.344-.87 2.268-.87.958 0 1.709.262 2.255.782.546.521.86 1.353.945 2.495h-6.577zm7.636 7.112c1.058-.735 1.696-1.804 1.915-3.206h-2.948c-.118.646-.42 1.148-.908 1.505-.487.358-1.193.536-2.116.536-1.143 0-2.021-.338-2.634-1.014-.614-.677-.945-1.65-.995-2.917h9.651v-.88c0-1.171-.172-2.177-.516-3.014-.345-.837-.803-1.523-1.374-2.059a5.355 5.355 0 0 0-1.978-1.18 7.355 7.355 0 0 0-2.356-.377c-.941 0-1.81.164-2.608.492a6.185 6.185 0 0 0-2.08 1.386 6.291 6.291 0 0 0-1.373 2.142c-.327.831-.491 1.76-.491 2.784v.202c0 1.042.164 1.974.491 2.797.328.823.79 1.525 1.386 2.104a6.12 6.12 0 0 0 2.117 1.336c.815.31 1.71.466 2.684.466 1.696 0 3.074-.367 4.133-1.103zM521.469 235.078h3.049v-7.78c0-1.044.302-1.831.907-2.361.605-.53 1.336-.796 2.192-.796.908 0 1.57.232 1.991.695.42.463.63 1.199.63 2.21v8.032h3.05v-8.29c0-.908-.11-1.69-.328-2.344-.219-.656-.53-1.188-.933-1.6a3.805 3.805 0 0 0-1.436-.92 5.272 5.272 0 0 0-1.814-.303c-1.093 0-1.996.236-2.71.706s-1.23 1.025-1.55 1.663v-8.19h-3.048v19.278zM518.268 235.203a6.29 6.29 0 0 0 .857-.23v-2.44c-.403.168-.9.252-1.487.252-.488 0-.861-.134-1.121-.403-.261-.269-.39-.697-.39-1.286v-6.93h2.897v-2.268h-2.898V219h-3.05v2.898h-1.763v2.268h1.764v7.224c0 1.263.336 2.23 1.008 2.904.671.674 1.663 1.01 2.974 1.01.47 0 .873-.033 1.21-.1zM503.778 235.203a6.29 6.29 0 0 0 .857-.23v-2.44c-.403.168-.9.252-1.487.252-.488 0-.861-.134-1.121-.403-.261-.269-.39-.697-.39-1.286v-6.93h2.897v-2.268h-2.898V219h-3.05v2.898h-1.763v2.268h1.764v7.224c0 1.263.336 2.23 1.008 2.904.671.674 1.663 1.01 2.974 1.01.47 0 .873-.033 1.21-.1zM486.163 227.115c.152-1.024.52-1.827 1.11-2.407.587-.58 1.343-.87 2.267-.87.958 0 1.71.262 2.256.782.545.521.86 1.353.945 2.495h-6.578zm7.636 7.112c1.058-.735 1.696-1.804 1.915-3.206h-2.948c-.118.646-.42 1.148-.907 1.505-.488.358-1.194.536-2.117.536-1.143 0-2.02-.338-2.634-1.014-.613-.677-.945-1.65-.995-2.917h9.652v-.88c0-1.171-.173-2.177-.517-3.014-.345-.837-.803-1.523-1.373-2.059a5.355 5.355 0 0 0-1.979-1.18 7.355 7.355 0 0 0-2.356-.377c-.941 0-1.81.164-2.608.492a6.185 6.185 0 0 0-2.08 1.386 6.292 6.292 0 0 0-1.372 2.142c-.328.831-.492 1.76-.492 2.784v.202c0 1.042.164 1.974.492 2.797.327.823.789 1.525 1.386 2.104a6.12 6.12 0 0 0 2.116 1.336c.815.31 1.71.466 2.684.466 1.697 0 3.075-.367 4.133-1.103zM470.892 235.078h11.038v-2.646h-7.686V217.06h-3.352v18.018z"/></g><g mask="url(#q)" style="display:block"><g clip-path="url(#r)" transform="matrix(.968 0 0 .968 721 217)"><path fill="#A100FF" d="M12-12v24h-24v-24h24z" style="display:block" transform="translate(12 12)"/><path fill="#FFF" d="M-3.7 4.6-2.3 6l6-6-6-6-1.4 1.4L.9 0l-4.6 4.6z" style="display:block" transform="translate(11.7 12)"/></g></g></g></svg>