<svg xmlns="http://www.w3.org/2000/svg" width="115.652" height="80.603" viewBox="0 0 115.652 80.603">
  <g id="Group_8906" data-name="Group 8906" transform="translate(9392.149 -6138)">
    <path id="Path_123" data-name="Path 123" d="M94.435,81.746c.41-.9,4.1-8.64,12.659-10.5a18.755,18.755,0,0,1,19.194,7.929,23.648,23.648,0,0,1,24.581-5.14c10.253,3.937,13.452,13.972,13.808,15.23,9.57-.137,17.526,6.671,18.7,15.23.984,7.082-2.816,14.327-9.57,18.046.027,1.039.191,7.382-4.676,11.948a15.992,15.992,0,0,1-17.335,2.57c-.684,1.394-5.8,11.265-17.089,13.808-9.706,2.187-20.124-1.859-26.467-10.308A18.842,18.842,0,0,1,79.205,118.3c-7.246-3.937-11.757-11.238-11.292-18.511.629-9.706,5.386-19.085,22.995-18.265C92.083,81.582,93.259,81.664,94.435,81.746Z" transform="translate(-9460.029 6067.15)" fill="#0075bc"/>
    <path id="Path_124" data-name="Path 124" d="M156.316,244.264a7.839,7.839,0,0,1-.164,1.668,2.555,2.555,0,0,1-.711,1.312,6.77,6.77,0,0,1-3.992,1.23,6.391,6.391,0,0,1-3.937-1.258,2.947,2.947,0,0,1-.793-1.34,5.525,5.525,0,0,1-.219-1.641V240.6h.137a3.511,3.511,0,0,1,1.176.273,1.41,1.41,0,0,1,.793,1.449v1.531a2.95,2.95,0,0,0,.547,1.8,1.932,1.932,0,0,0,1.039.629,4.861,4.861,0,0,0,1.285.191,3.9,3.9,0,0,0,1.258-.191,1.848,1.848,0,0,0,.93-.52,2.78,2.78,0,0,0,.629-2v-3.144h2.023v3.637Z" transform="translate(-9517.153 5943.813)" fill="#fff"/>
    <path id="Path_125" data-name="Path 125" d="M147.476,231.1h8.476v1.969H146v-.328a1.748,1.748,0,0,1,.437-1.312A1.29,1.29,0,0,1,147.476,231.1Z" transform="translate(-9516.79 5950.715)" fill="#fff"/>
    <path id="Path_126" data-name="Path 126" d="M156.984,208.534a3.082,3.082,0,0,1-.738-1.121,4.18,4.18,0,0,1-.246-1.476,4.448,4.448,0,0,1,.246-1.5,3.213,3.213,0,0,1,1.887-1.887,4.718,4.718,0,0,1,3.008,0,3.6,3.6,0,0,1,1.148.738,3.188,3.188,0,0,1,.738,1.148,3.7,3.7,0,0,1,.246,1.5,4.181,4.181,0,0,1-.246,1.476,2.87,2.87,0,0,1-.738,1.121,3.188,3.188,0,0,1-1.148.738,4.338,4.338,0,0,1-1.5.246,4.23,4.23,0,0,1-1.5-.246A3.188,3.188,0,0,1,156.984,208.534Zm4.211-1.285a1.485,1.485,0,0,0,.684-1.312,1.52,1.52,0,0,0-.191-.82,2.351,2.351,0,0,0-.492-.547,2.255,2.255,0,0,0-.711-.273,4.172,4.172,0,0,0-.82-.082,3.974,3.974,0,0,0-.82.082,1.84,1.84,0,0,0-.711.273,1.668,1.668,0,0,0-.52.547,1.52,1.52,0,0,0-.191.82,1.422,1.422,0,0,0,.191.793,1.573,1.573,0,0,0,.52.52,1.84,1.84,0,0,0,.711.273,4.141,4.141,0,0,0,1.641,0A2.255,2.255,0,0,0,161.2,207.249Z" transform="translate(-9524.057 5971.641)" fill="#fff"/>
    <path id="Path_127" data-name="Path 127" d="M163.473,179.89a5.284,5.284,0,0,1-.656,2.6,1.784,1.784,0,0,1-1.039.574,5.626,5.626,0,0,1-1.2.109H156.2V181.23h4.019a2.122,2.122,0,0,0,1.176-.273,1.169,1.169,0,0,0,.437-1.039,1.357,1.357,0,0,0-.437-1.148,1.79,1.79,0,0,0-1.094-.328h-2.707a1.138,1.138,0,0,1-1.176-.684,3.69,3.69,0,0,1-.219-1.258h4.375a3.794,3.794,0,0,1,1.176.164,2.247,2.247,0,0,1,1.039.629A4.874,4.874,0,0,1,163.473,179.89Z" transform="translate(-9524.201 5990.387)" fill="#fff"/>
    <path id="Path_128" data-name="Path 128" d="M146,150.1a1.1,1.1,0,0,1,.437-.984,1.683,1.683,0,0,1,1.039-.219s4.894,0,5.14.027a5.128,5.128,0,0,1,1.7.355,2.944,2.944,0,0,1,1.176.957,4.277,4.277,0,0,1,.574,2.078,4.081,4.081,0,0,1-.383,1.7,2.545,2.545,0,0,1-.656.9,3.2,3.2,0,0,1-1.121.656,5.592,5.592,0,0,1-3.281,0,2.968,2.968,0,0,1-1.121-.656,2.545,2.545,0,0,1-.656-.9,2.833,2.833,0,0,1-.219-1.039,3.291,3.291,0,0,1,.246-1.23,2.876,2.876,0,0,1,.6-.93H146Zm6.289,3.8a2.273,2.273,0,0,0,.711-.082,2.068,2.068,0,0,0,.711-.3,1.688,1.688,0,0,0,.492-.492,1.237,1.237,0,0,0,.191-.738,1.2,1.2,0,0,0-.191-.711,1.282,1.282,0,0,0-.492-.52,2.422,2.422,0,0,0-.711-.3,3.547,3.547,0,0,0-.711-.082h-.055a2.208,2.208,0,0,0-.52.082,2.321,2.321,0,0,0-.711.3,1.494,1.494,0,0,0-.492.52,1.2,1.2,0,0,0-.191.711,1.354,1.354,0,0,0,.191.738,1.218,1.218,0,0,0,.492.492,2.421,2.421,0,0,0,.711.3,2.021,2.021,0,0,0,.492.082Z" transform="translate(-9516.79 6010.44)" fill="#fff"/>
    <path id="Path_129" data-name="Path 129" d="M201.793,157.9V159.3a3.427,3.427,0,0,1-.766,2.215,3.881,3.881,0,0,1-2.543.93h-1.7v11.484a3.6,3.6,0,0,0,.547,2.242c.383.383,1.148.41,2.242.41h2.215v5.3h-4.019a15.9,15.9,0,0,1-2.871-.219,6.859,6.859,0,0,1-2.461-.793,4.6,4.6,0,0,1-1.641-1.75,6.219,6.219,0,0,1-.6-2.926V148.8h2.461a4.179,4.179,0,0,1,3.308,1.394,3.725,3.725,0,0,1,.848,2.379V157.9Z" transform="translate(-9548.904 6010.513)" fill="#fff"/>
    <path id="Path_130" data-name="Path 130" d="M256.217,203.958a10.786,10.786,0,0,1-3.062,1.285,18.424,18.424,0,0,1-4.019.52h-.547c-4.32,0-7.628-1.832-8.722-3.336a4.9,4.9,0,0,1-.93-3.254s-.137-2.379-.137-5a34.232,34.232,0,0,1,.328-5.468,8.885,8.885,0,0,1,3.308-5.386,12.752,12.752,0,0,1,7.41-2.215,13.942,13.942,0,0,1,5.332.9,7.618,7.618,0,0,1,2.461,1.531,6.927,6.927,0,0,1,1.476,2.105,7.11,7.11,0,0,1,.6,2.953,7.981,7.981,0,0,1-.684,3.144,6.545,6.545,0,0,1-4.019,3.719c-.055,0-.082.055-.137.055a13.722,13.722,0,0,1-2.762.547c-.93.164-1.832.3-2.707.383a9.339,9.339,0,0,0-2.16.3,3.556,3.556,0,0,0-1.613.766,1.442,1.442,0,0,0-.629,1.094,2.867,2.867,0,0,0,.3,1.367c.6.93,2.406,1.176,4.238,1.176a4.568,4.568,0,0,0,2.844-.766,2.783,2.783,0,0,0,1.23-2.105h6.152a8.214,8.214,0,0,1-1.066,3.336A7.869,7.869,0,0,1,256.217,203.958Zm-8.859-11.948c.437-.082.9-.164,1.394-.219.465-.055.984-.137,1.449-.219s.93-.219,1.394-.328a3.066,3.066,0,0,0,1.148-.6,2.829,2.829,0,0,0,1.094-2.16v-.219a2.574,2.574,0,0,0-.3-1.176,2.374,2.374,0,0,0-.793-.848,3.3,3.3,0,0,0-1.23-.465,8.146,8.146,0,0,0-1.449-.137,5.4,5.4,0,0,0-2.789.629,3.956,3.956,0,0,0-1.476,1.449,5.265,5.265,0,0,0-.6,1.7q-.082.9-.082,1.394v2.023a3.045,3.045,0,0,1,.984-.519A12.191,12.191,0,0,1,247.358,192.01Z" transform="translate(-9584.217 5987.044)" fill="#fff"/>
    <path id="Path_131" data-name="Path 131" d="M329.789,152.829v13.644l8.312-8.613h7.793l-9.023,8.8,10.035,15.12h-2.762a9.522,9.522,0,0,1-4.785-1.312,9.165,9.165,0,0,1-2.844-2.6l-4.156-6.781-2.6,2.461v8.23H323.2V148.7h1.312a5.457,5.457,0,0,1,3.91,1.148A4.094,4.094,0,0,1,329.789,152.829Z" transform="translate(-9645.54 6010.585)" fill="#fff"/>
  </g>
</svg>
